<?xml version='1.0' encoding='utf-8'?>
<svg xmlns="http://www.w3.org/2000/svg" viewBox="0 0 429.93 480.03"> <defs> <style>.cls-1{fill:#eeb303;}.cls-1,.cls-2,.cls-3,.cls-4,.cls-5,.cls-6{fill-rule:evenodd;}.cls-2{fill:#009540;}.cls-3{fill:#008ad1;}.cls-4{fill:#7c6eaf;}.cls-5{fill:#e20613;}.cls-6{fill:#ee7d00;}</style> </defs> <path class="cls-1" transform="translate(-505.04 -363)" d="M510.36,486.5c-16.8,35.12,12.17,81.15,33,108.31,6.7,8.6,15.51,20.12,27.11,30.53,10,8.94,23.6-5.72,14.06-15.12-36.38-35.87-70.72-83.51-55.71-114.87l.08-.15.07-.15c4.37-9.55,14.66-15.84,26.57-20.14,5.76-2.08,10.39,5,6.25,9.52l-.14.16c-4.73,5.16-12,12.78-14.91,19.1-6.4,13.66-.83,29.53,5.92,41.93,11.83,19.18,27.81,39.9,47.47,57,9.74,8.5,22.8-5.74,13.54-14.77-4.44-4.33-8.88-8.86-13.39-13.64-10.7-11.34-22.14-24.72-29.62-38.45-3-5.53-8.4-17-5.36-23.44,2.38-5.14,24.39-27.75,42.65-46.6,8.06-8.33,1-22.15-10.44-20.54h0c-29.91,4.18-73,10.34-87.17,41.27"/> <path class="cls-2" transform="translate(-505.04 -363)" d="M514.28,726.31c22,32.11,76.36,30,110.3,25.56,10.8-1.5,25.18-3.37,40-8.21,12.74-4.16,6.85-23.3-6.06-19.74-49.25,13.57-107.67,19.49-127.33-9.19l-.09-.14-.1-.13c-6.08-8.57-6.39-20.62-4.16-33.09,1.08-6,9.54-6.49,11.38-.65l.06.2c2.11,6.68,5.1,16.75,9.09,22.46,8.64,12.38,25.16,15.49,39.28,15.84,22.52-.66,48.46-4.13,73.13-12.58,12.24-4.19,6.43-22.62-6-19.11-6,1.67-12.11,3.26-18.5,4.77-15.17,3.6-32.48,6.82-48.11,6.43-6.3-.15-18.9-1.22-23-7.08-3.27-4.63-11.84-35-19-60.23-3.18-11.15-18.66-12-23-1.23h0c-11.34,28-27.53,68.37-7.84,96.12"/> <path class="cls-3" transform="translate(-505.04 -363)" d="M723.92,842.83c38.81-3,64.19-51.12,77.28-82.76,4.1-10.09,9.67-23.48,12.89-38.73,2.76-13.11-16.76-17.59-20.13-4.62-12.87,49.44-37,103-71.62,105.67l-.17,0H722c-10.46,1-21-4.78-30.74-12.94-4.68-4-.85-11.51,5.13-10.18l.2.05c6.84,1.51,17.06,4,24,3.36,15-1.29,26-14.05,33.35-26.09,10.69-19.84,20.65-44,25.68-69.64,2.49-12.68-16.38-16.87-19.57-4.34-1.53,6-3.23,12.12-5.11,18.41-4.47,14.94-10.34,31.54-18.49,44.88-3.28,5.38-10.51,15.76-17.62,16.36-5.64.52-36.23-7.24-61.68-13.63-11.24-2.82-19.7,10.17-12.57,19.31h0c18.58,23.82,45.45,58,79.33,54.86"/> <path class="cls-4" transform="translate(-505.04 -363)" d="M929.64,719.53c16.81-35.11-12.17-81.15-33-108.31-6.69-8.6-15.51-20.12-27.11-30.52-10-9-23.6,5.71-14.06,15.12,36.38,35.86,70.72,83.5,55.71,114.86l-.08.15L911,711c-4.37,9.55-14.66,15.84-26.57,20.15-5.76,2.08-10.39-5-6.25-9.53l.14-.15c4.73-5.17,12-12.79,14.91-19.11,6.4-13.66.83-29.53-5.92-41.93-11.83-19.17-27.81-39.9-47.47-57-9.74-8.5-22.8,5.74-13.54,14.77,4.44,4.33,8.88,8.87,13.39,13.64,10.7,11.34,22.14,24.72,29.62,38.45,3,5.53,8.4,17,5.36,23.44-2.38,5.14-24.39,27.75-42.65,46.6-8.06,8.33-1,22.15,10.44,20.54h0c29.91-4.18,73-10.34,87.17-41.27"/> <path class="cls-5" transform="translate(-505.04 -363)" d="M925.72,479.72c-22-32.11-76.36-30-110.3-25.55-10.8,1.49-25.18,3.36-40,8.21-12.73,4.16-6.85,23.29,6.06,19.74,49.25-13.58,107.67-19.5,127.33,9.18l.09.14.1.14c6.08,8.56,6.39,20.61,4.16,33.08-1.08,6-9.54,6.49-11.38.65l-.06-.19c-2.11-6.69-5.1-16.76-9.09-22.47-8.63-12.38-25.16-15.49-39.27-15.84-22.53.66-48.47,4.14-73.14,12.58-12.24,4.19-6.43,22.62,6,19.12,6-1.68,12.11-3.26,18.5-4.78,15.18-3.6,32.48-6.82,48.11-6.43,6.3.15,18.9,1.22,23,7.09,3.27,4.62,11.84,35,19,60.22,3.18,11.15,18.66,12,23,1.24h0c11.34-28,27.53-68.38,7.84-96.13"/> <path class="cls-6" transform="translate(-505.04 -363)" d="m716.08 363.21c-38.81 3-64.19 51.11-77.28 82.75-4.1 10.09-9.67 23.48-12.89 38.73-2.76 13.11 16.76 17.59 20.13 4.62 12.87-49.44 37-103 71.62-105.67h0.34c10.46-1 21 4.78 30.74 12.94 4.68 3.95 0.85 11.51-5.13 10.18h-0.2c-6.84-1.52-17-4-24-3.37-15 1.29-26 14.05-33.35 26.1-10.69 19.83-20.65 44-25.68 69.63-2.49 12.68 16.38 16.87 19.57 4.34 1.52-6 3.23-12.12 5.11-18.41 4.47-14.94 10.34-31.54 18.49-44.88 3.28-5.38 10.51-15.76 17.63-16.36 5.63-0.52 36.22 7.24 61.67 13.63 11.24 2.82 19.7-10.17 12.57-19.31-18.58-23.81-45.45-58-79.33-54.85"/> </svg>